<svg xmlns="http://www.w3.org/2000/svg" width="128" height="128" viewBox="0 0 128 128"><g transform="translate(64 64) scale(0.609375) translate(-63.75 -63.75)"><g transform="scale(0.25)"><g transform="translate(0.000000,512.000000) scale(0.100000,-0.100000)"><path d="M2290 5109 c-428 -48 -839 -202 -1185 -444 -914 -640 -1311 -1757
-1003 -2825 160 -558 528 -1060 1028 -1403 300 -205 646 -343 1030 -408 159
-26 480 -37 640 -20 610 64 1127 307 1559 734 399 394 649 884 737 1447 23
145 26 566 6 705 -88 587 -335 1079 -743 1482 -420 414 -929 661 -1507 728
-136 16 -436 18 -562 4z m430 -639 c592 -51 1120 -364 1442 -854 569 -865 343
-2038 -507 -2631 -488 -341 -1125 -433 -1695 -245 -492 161 -894 510 -1120
973 -262 536 -262 1157 0 1693 316 647 968 1058 1700 1073 36 0 117 -4 180 -9z" fill="#ebb5ec"/><path d="M1510 3518 c-24 -13 -52 -35 -63 -49 -24 -34 -33 -106 -18 -152 9
-26 140 -160 527 -538 302 -296 531 -511 552 -521 33 -16 85 -18 537 -18 500
0 501 0 545 23 65 33 85 66 85 140 0 75 -27 120 -89 148 -38 17 -74 19 -496
19 l-455 0 -475 466 c-299 293 -490 472 -515 484 -52 25 -81 25 -135 -2z" fill="#ebb5ec"/></g></g></g></svg>