<svg xmlns="http://www.w3.org/2000/svg" width="128" height="128" viewBox="0 0 128 128"><g transform="translate(64 64) scale(0.696429) translate(-63.75 -61.75)"><g transform="scale(0.25)"><g transform="translate(0.000000,512.000000) scale(0.100000,-0.100000)"><path d="M2270 4945 c-917 -128 -1649 -749 -1920 -1630 -16 -54 -30 -101 -30
-106 0 -5 104 -8 241 -7 l241 3 33 85 c105 274 286 535 498 721 707 620 1747
620 2453 0 214 -187 393 -445 499 -721 l33 -85 242 -3 242 -2 -7 32 c-20 88
-103 308 -165 433 -335 682 -966 1150 -1715 1271 -141 23 -507 28 -645 9z" fill="#ebb5ec"/><path d="M2465 3769 c-330 -26 -634 -207 -817 -487 l-50 -77 481 -3 c265 -1
697 -1 962 0 l481 3 -53 80 c-169 260 -495 459 -788 481 -36 3 -79 6 -96 7
-16 2 -70 0 -120 -4z" fill="#ebb5ec"/><path d="M1438 1438 l1122 -1123 1122 1123 1123 1122 -2245 0 -2245 0 1123
-1122z" fill="#ebb5ec"/></g></g></g></svg>