<svg xmlns="http://www.w3.org/2000/svg" width="128" height="128" viewBox="0 0 128 128"><g transform="translate(64 64) scale(0.693333) translate(-64 -67.75)"><g transform="scale(0.25)"><g transform="translate(0.000000,512.000000) scale(0.100000,-0.100000)"><path d="M599 4786 c-109 -41 -190 -113 -236 -211 l-28 -60 0 -835 0 -835 29
-60 c54 -109 156 -189 274 -214 84 -18 3808 -15 3883 3 111 26 206 105 257
214 l27 57 0 840 0 840 -28 56 c-41 84 -98 143 -175 181 l-67 33 -1950 2
c-1589 1 -1957 -1 -1986 -11z m3875 -328 c14 -20 16 -97 16 -640 l0 -618
-1920 0 -1920 0 0 620 c0 607 0 620 20 640 20 20 33 20 1904 20 l1885 0 15
-22z" fill="#ebb5ec"/><path d="M3202 3993 l3 -167 243 -218 242 -219 234 223 234 223 1 163 1 162
-122 0 -123 0 -117 -117 -118 -118 -111 118 -111 117 -129 0 -129 0 2 -167z" fill="#ebb5ec"/><path d="M626 2239 c-109 -26 -210 -110 -263 -218 l-28 -56 0 -840 0 -840 27
-57 c37 -80 107 -152 187 -191 l66 -32 1960 0 1960 0 57 27 c74 34 146 107
184 183 l29 60 0 845 0 845 -32 66 c-39 80 -111 150 -191 187 l-57 27 -1930 2
c-1142 0 -1946 -3 -1969 -8z m3854 -338 c6 -13 10 -232 10 -640 l0 -621 -1920
0 -1920 0 0 618 c0 543 2 620 16 640 l15 22 1894 0 c1863 0 1894 0 1905 -19z" fill="#ebb5ec"/><path d="M1280 1290 l0 -320 1280 0 1280 0 0 320 0 320 -1280 0 -1280 0 0
-320z" fill="#ebb5ec"/></g></g></g></svg>