<svg xmlns="http://www.w3.org/2000/svg" xmlns:xlink="http://www.w3.org/1999/xlink" width="128" height="128" viewBox="0 0 128 128">
 <g transform="translate(64 64) scale(2.30525) translate(-32.03125 -32.09375)">

  <metadata id="metadata77">
    
  </metadata>
  
  <defs id="defs29">
    <style id="current-color-scheme" type="text/css">.ColorScheme-Text {color:#9a9fa6} .ColorScheme-Highlight {color:#9a9fa6}</style></defs>
  <g id="g877" transform="matrix(1.1,0,0,1.1,-3.1845928,-3.2065454)" style="">
    <path style="opacity:1;baseline-shift:baseline;display:inline;overflow:visible;vector-effect:none;fill:#9a9fa6;enable-background:accumulate;stop-color:#3c4150;stop-opacity:1" d="m 19.662109,8.8378906 c -3.322035,0 -6.02539,2.6861674 -6.02539,5.9980474 v 34.572265 c 0,3.31188 2.703355,6 6.02539,6 h 24.738282 c 3.322035,0 6.027343,-2.68812 6.027343,-6 V 14.835938 c 0,-3.31188 -2.705308,-5.9980474 -6.027343,-5.9980474 z m 0,1.6347654 h 24.738282 c 2.448644,0 4.390625,1.933707 4.390625,4.363282 v 34.572265 c 0,2.429575 -1.941981,4.363281 -4.390625,4.363281 H 19.662109 c -2.448644,0 -4.390625,-1.933706 -4.390625,-4.363281 V 14.835938 c 0,-2.429575 1.941981,-4.363282 4.390625,-4.363282 z" class="ColorScheme-Text" id="rect246"/>
  <path d="m 23.804175,23.64235 c -0.891818,0 -1.636364,0.744545 -1.636364,1.636364 v 9.818181 c 0,0.891819 0.744546,1.636364 1.636364,1.636364 h 16.363636 c 0.891818,0 1.636364,-0.744545 1.636364,-1.636364 v -9.818181 c 0,-0.891819 -0.744546,-1.636364 -1.636364,-1.636364 z m 0,1.636364 h 16.363636 v 9.818181 H 23.804175 Z m 1.636364,1.636363 v 6.545455 h 1.636364 v -3.579546 l 1.636362,2.556818 1.636364,-2.556818 v 3.579546 h 1.636364 v -6.545455 h -1.636364 l -1.636364,2.556818 -1.636362,-2.556818 z m 9.818182,0 v 3.272727 h -1.636364 l 2.454546,3.272728 2.454544,-3.272728 h -1.636364 v -3.272727 z" color="#000000" style="text-indent:0;text-decoration-line:none;text-decoration-style:solid;text-transform:none;white-space:normal;isolation:auto;mix-blend-mode:normal;fill:#9a9fa6;fill-opacity:1;stroke-width:0.818182" id="path5" class="ColorScheme-Text"/>
  </g>
</g></svg>
